<?xml version="1.0" encoding="UTF-8" standalone="no"?>
<!-- Created with Inkscape (http://www.inkscape.org/) -->

<svg
   width="16"
   height="16"
   viewBox="0 0 16 16"
   version="1.1"
   id="svg5"
   xml:space="preserve"
   inkscape:version="1.2.2 (732a01da63, 2022-12-09)"
   sodipodi:docname="drop.svg"
   xmlns:inkscape="http://www.inkscape.org/namespaces/inkscape"
   xmlns:sodipodi="http://sodipodi.sourceforge.net/DTD/sodipodi-0.dtd"
   xmlns="http://www.w3.org/2000/svg"
   xmlns:svg="http://www.w3.org/2000/svg"><sodipodi:namedview
     id="namedview7"
     pagecolor="#ffffff"
     bordercolor="#000000"
     borderopacity="0.25"
     inkscape:showpageshadow="2"
     inkscape:pageopacity="0.0"
     inkscape:pagecheckerboard="0"
     inkscape:deskcolor="#d1d1d1"
     inkscape:document-units="mm"
     showgrid="false"
     inkscape:zoom="22.627417"
     inkscape:cx="3.1598834"
     inkscape:cy="9.0156114"
     inkscape:window-width="1920"
     inkscape:window-height="1009"
     inkscape:window-x="-8"
     inkscape:window-y="-8"
     inkscape:window-maximized="1"
     inkscape:current-layer="layer1" /><defs
     id="defs2" /><g
     inkscape:label="Calque 1"
     inkscape:groupmode="layer"
     id="layer1"><path
       style="fill:#000000;stroke-width:0.370007"
       d="M 5.1845907,14.783662 C 3.8133777,13.810289 2.5,11.715709 2.5,9.948298 2.5,7.5652141 3.8054722,3.8773 5.4087362,2.1310878 c 1.988927,-2.16626118 2.80137,-2.17199914 4.7646688,-0.033651 1.808668,1.9699304 2.703856,4.4543747 2.703856,7.5041055 0,2.7878307 -0.700346,4.2287427 -2.528406,5.2020097 -1.7823127,0.948912 -3.4454663,0.91452 -5.1642643,-0.01988 z m 5.2644313,-1.700081 c 1.16259,-1.213279 1.545036,-3.4005356 0.847465,-5.9047115 -0.70595,-2.53426 -2.502603,-5.2231792 -3.4899684,-5.2231792 -0.9873644,0 -3.0087637,3.0400845 -3.714714,5.5743445 -0.8907296,3.1975902 0.016697,5.2446592 2.0848326,6.1832602 1.2090534,0.548716 3.3353079,0.348225 4.2723848,-0.629714 z"
       id="path179"
       sodipodi:nodetypes="cssssscccssssc" /></g></svg>
