<?xml version="1.0" encoding="UTF-8" standalone="no"?>
<!-- Created with Inkscape (http://www.inkscape.org/) -->

<svg
   width="16"
   height="16"
   viewBox="0 0 0.32254578 0.32254579"
   version="1.1"
   id="svg5"
   xml:space="preserve"
   inkscape:version="1.2.2 (732a01da63, 2022-12-09)"
   sodipodi:docname="infos.svg"
   xmlns:inkscape="http://www.inkscape.org/namespaces/inkscape"
   xmlns:sodipodi="http://sodipodi.sourceforge.net/DTD/sodipodi-0.dtd"
   xmlns="http://www.w3.org/2000/svg"
   xmlns:svg="http://www.w3.org/2000/svg"><sodipodi:namedview
     id="namedview7"
     pagecolor="#ffffff"
     bordercolor="#000000"
     borderopacity="0.25"
     inkscape:showpageshadow="2"
     inkscape:pageopacity="0.0"
     inkscape:pagecheckerboard="0"
     inkscape:deskcolor="#d1d1d1"
     inkscape:document-units="px"
     showgrid="false"
     inkscape:zoom="33.421469"
     inkscape:cx="7.6896679"
     inkscape:cy="7.5101426"
     inkscape:window-width="1920"
     inkscape:window-height="1009"
     inkscape:window-x="-8"
     inkscape:window-y="-8"
     inkscape:window-maximized="1"
     inkscape:current-layer="layer1" /><defs
     id="defs2" /><g
     inkscape:label="Calque 1"
     inkscape:groupmode="layer"
     id="layer1"><path
       style="fill:#000000;stroke-width:0.00542391"
       d="m 0.11746186,0.30416484 c -0.005645,-0.006806 -0.003722,-0.0214901 0.0107145,-0.0817333 0.009679,-0.0403908 0.0159814,-0.0750535 0.014007,-0.0770288 -0.001978,-0.001978 -0.0111383,7.4071e-4 -0.0203641,0.006037 -0.0101239,0.005811 -0.0187348,0.007659 -0.0217263,0.004669 -0.0055035,-0.005503 0.0543397,-0.0479029 0.0748876,-0.05306 0.0288025,-0.007228 0.0298665,0.005025 0.007584,0.0873768 -0.0222663,0.0822844 -0.0206801,0.0974063 0.007931,0.0757624 0.0123214,-0.009319 0.0193029,-0.0101952 0.0193029,-0.002419 0,0.0075 -0.0643925,0.048697 -0.0761121,0.048697 -0.005137,0 -0.0124396,-0.003731 -0.0162289,-0.008297 z m 0.0477697,-0.25518546 c -0.0110914,-0.02434192 0.0116708,-0.04710417 0.0360127,-0.03601274 0.0153158,0.0069749 0.0195195,0.03143874 0.007472,0.04348547 -0.0120449,0.01204675 -0.0365069,0.0078468 -0.0434856,-0.0074718 z"
       id="path215" /></g></svg>
