<?xml version="1.0" encoding="UTF-8" standalone="no"?>
<!-- Created with Inkscape (http://www.inkscape.org/) -->

<svg
   width="16"
   height="16"
   viewBox="0 0 0.32254578 0.32254579"
   version="1.1"
   id="svg5"
   xml:space="preserve"
   inkscape:version="1.2.2 (732a01da63, 2022-12-09)"
   sodipodi:docname="loot.svg"
   xmlns:inkscape="http://www.inkscape.org/namespaces/inkscape"
   xmlns:sodipodi="http://sodipodi.sourceforge.net/DTD/sodipodi-0.dtd"
   xmlns="http://www.w3.org/2000/svg"
   xmlns:svg="http://www.w3.org/2000/svg"><sodipodi:namedview
     id="namedview7"
     pagecolor="#ffffff"
     bordercolor="#000000"
     borderopacity="0.25"
     inkscape:showpageshadow="2"
     inkscape:pageopacity="0.0"
     inkscape:pagecheckerboard="0"
     inkscape:deskcolor="#d1d1d1"
     inkscape:document-units="px"
     showgrid="false"
     inkscape:zoom="33.421469"
     inkscape:cx="3.9794779"
     inkscape:cy="10.681757"
     inkscape:window-width="1920"
     inkscape:window-height="1009"
     inkscape:window-x="-8"
     inkscape:window-y="-8"
     inkscape:window-maximized="1"
     inkscape:current-layer="layer1" /><defs
     id="defs2" /><g
     inkscape:label="Calque 1"
     inkscape:groupmode="layer"
     id="layer1"><path
       style="fill:#000000;stroke-width:0.0043825"
       d="M 0.09764139,0.27803768 0.0362864,0.24360896 V 0.16351886 0.08342876 L 0.10136553,0.04675415 0.16644465,0.01007956 h 0.003508 0.003508 l 0.0650791,0.03667459 0.0650791,0.03667461 v 0.08009005 0.0800901 l -0.061355,0.0344287 -0.061355,0.0344287 H 0.16995314 0.15899691 Z M 0.1568051,0.22303185 V 0.17303416 L 0.11293384,0.14852933 0.06906259,0.1240245 h -0.004336 -0.004336 v 0.0476709 0.0476709 l 0.005732,0.004757 0.005732,0.004757 0.03918858,0.0219948 0.0391886,0.0219947 0.003287,7.964e-5 0.003287,7.964e-5 z m 0.0653636,0.0318609 0.0332426,-0.0181367 0.0120519,-0.008457 0.0120519,-0.008457 V 0.17193361 0.1240245 H 0.2751791 0.2708431 L 0.2269718,0.1485293 0.1831005,0.1730341 v 0.0499977 0.0499977 h 0.002913 0.002913 z m -0.0388511,-0.11564206 0.0129299,-0.006687 -9.066e-5,-0.003174 -9.066e-5,-0.003174 -0.0426238,-0.0246131 -0.0426238,-0.02461308 -0.01433973,0.0068378 -0.01433972,0.0068378 0.0012418,0.0037253 0.0012418,0.0037263 0.04156912,0.02364463 0.0415691,0.0236446 0.001313,2.6518e-4 0.001313,2.6517e-4 z M 0.2446725,0.10419069 0.2576024,0.09750399 0.25746059,0.09432967 0.25731873,0.09115526 0.21567007,0.06814714 0.1740214,0.04513902 h -0.005932 -0.005932 l -0.009829,0.0079588 -0.009829,0.0079588 0.0433071,0.02476404 0.0433071,0.02476394 0.001313,1.4637e-4 0.001313,1.4633e-4 z"
       id="path300" /></g></svg>
