<?xml version="1.0" encoding="UTF-8" standalone="no"?>
<!-- Created with Inkscape (http://www.inkscape.org/) -->

<svg
   width="16"
   height="16"
   viewBox="0 0 0.32254578 0.32254579"
   version="1.1"
   id="svg5"
   xml:space="preserve"
   inkscape:version="1.2.2 (732a01da63, 2022-12-09)"
   sodipodi:docname="map.svg"
   xmlns:inkscape="http://www.inkscape.org/namespaces/inkscape"
   xmlns:sodipodi="http://sodipodi.sourceforge.net/DTD/sodipodi-0.dtd"
   xmlns="http://www.w3.org/2000/svg"
   xmlns:svg="http://www.w3.org/2000/svg"><sodipodi:namedview
     id="namedview7"
     pagecolor="#ffffff"
     bordercolor="#000000"
     borderopacity="0.25"
     inkscape:showpageshadow="2"
     inkscape:pageopacity="0.0"
     inkscape:pagecheckerboard="0"
     inkscape:deskcolor="#d1d1d1"
     inkscape:document-units="px"
     showgrid="false"
     inkscape:zoom="33.421469"
     inkscape:cx="7.8093514"
     inkscape:cy="8.1684021"
     inkscape:window-width="1920"
     inkscape:window-height="1009"
     inkscape:window-x="-8"
     inkscape:window-y="-8"
     inkscape:window-maximized="1"
     inkscape:current-layer="layer1" /><defs
     id="defs2" /><g
     inkscape:label="Calque 1"
     inkscape:groupmode="layer"
     id="layer1"><path
       style="fill:#000000;stroke-width:0.00472479"
       d="M 0.01612729,0.17921607 V 0.0478518 l 0.0490784,-0.01586225 0.0490784,-0.01586226 0.0496127,0.01713805 0.0496127,0.01713805 0.0406219,-0.01638007 c 0.022342,-0.009009 0.0438419,-0.01638007 0.0477775,-0.01638007 0.006219,0 0.007156,0.01718798 0.007156,0.13136427 v 0.13136426 l -0.0490784,0.0158623 -0.0490784,0.0158623 -0.0496127,-0.0171381 -0.0496127,-0.017138 -0.0406219,0.0163801 c -0.022342,0.009009 -0.0438419,0.0163801 -0.0477775,0.0163801 -0.006219,0 -0.007156,-0.017188 -0.007156,-0.13136441 z M 0.1937226,0.08026863 C 0.19254185,0.07908788 0.17761375,0.07305387 0.16054904,0.06685972 L 0.12952229,0.05559761 v 0.09644075 0.0964407 l 0.0248051,0.009139 c 0.0136428,0.005027 0.0279944,0.010142 0.0318923,0.0113675 0.006109,0.001921 0.007264,-0.0108 0.008368,-0.0921712 7.0467e-4,-0.0519196 3.1515e-4,-0.09536535 -8.6509e-4,-0.09654573 z m 0.0846306,0.0786675 c 0,-0.10737227 0.002259,-0.10141614 -0.032893,-0.08672871 l -0.0167173,0.0069849 v 0.09650711 0.0965071 l 0.0248052,-0.008432 0.0248052,-0.008432 z m -0.19767161,0.096683 0.0157671,-0.006588 v -0.0965071 -0.0965071 l -0.0248052,0.0084282 -0.0248052,0.0084282 -0.001278,0.09794104 -0.001278,0.097941 0.0103161,-0.003274 c 0.005674,-0.001801 0.0174114,-0.006239 0.0260832,-0.009862 z m -0.0220312,-0.0225357 c 0,-0.0136127 0.002171,-0.0168313 0.0141744,-0.0210158 0.0141427,-0.00493 0.0141744,-0.004901 0.0141744,0.0131611 0,0.0147788 -0.001952,0.0186254 -0.0106308,0.0209513 -0.0168502,0.004516 -0.017718,0.003874 -0.017718,-0.0130966 z m 0,-0.0450424 c 0,-0.0147788 0.001952,-0.0186254 0.0106308,-0.0209513 0.0168502,-0.004516 0.017718,-0.003874 0.017718,0.0130966 0,0.0136127 -0.002171,0.0168313 -0.0141744,0.0210158 -0.0141427,0.00493 -0.0141744,0.004901 -0.0141744,-0.0131611 z m 0,-0.0453078 c 0,-0.0135292 0.002274,-0.0175182 0.0121196,-0.0212616 0.0166297,-0.006323 0.0162292,-0.00662 0.0162292,0.0120459 0,0.0135292 -0.002274,0.0175182 -0.0121196,0.0212616 -0.0166297,0.006323 -0.0162292,0.00662 -0.0162292,-0.0120459 z m 0,-0.04471678 c 0,-0.01578159 0.001765,-0.01864191 0.0141744,-0.02296777 0.0140985,-0.0049148 0.0141744,-0.0048469 0.0141744,0.01267632 0,0.01523624 -0.001916,0.01834071 -0.0141744,0.02296776 l -0.0141744,0.00535 z"
       id="path234" /></g></svg>
