<?xml version="1.0" encoding="UTF-8" standalone="no"?>
<!-- Created with Inkscape (http://www.inkscape.org/) -->

<svg
   width="16"
   height="16"
   viewBox="0 0 0.32254578 0.32254579"
   version="1.1"
   id="svg5"
   xml:space="preserve"
   inkscape:version="1.2.2 (732a01da63, 2022-12-09)"
   sodipodi:docname="mix.svg"
   xmlns:inkscape="http://www.inkscape.org/namespaces/inkscape"
   xmlns:sodipodi="http://sodipodi.sourceforge.net/DTD/sodipodi-0.dtd"
   xmlns="http://www.w3.org/2000/svg"
   xmlns:svg="http://www.w3.org/2000/svg"><sodipodi:namedview
     id="namedview7"
     pagecolor="#ffffff"
     bordercolor="#000000"
     borderopacity="0.25"
     inkscape:showpageshadow="2"
     inkscape:pageopacity="0.0"
     inkscape:pagecheckerboard="0"
     inkscape:deskcolor="#d1d1d1"
     inkscape:document-units="px"
     showgrid="false"
     inkscape:zoom="47.265095"
     inkscape:cx="5.5220454"
     inkscape:cy="7.8070296"
     inkscape:window-width="1920"
     inkscape:window-height="1009"
     inkscape:window-x="-8"
     inkscape:window-y="-8"
     inkscape:window-maximized="1"
     inkscape:current-layer="layer1" /><defs
     id="defs2" /><g
     inkscape:label="Calque 1"
     inkscape:groupmode="layer"
     id="layer1"><path
       style="fill:#000000;stroke-width:0.00373317"
       d="m 0.23810155,0.27310015 v -0.0226045 h -0.019716 c -0.0190656,0 -0.0204214,-7.1285e-4 -0.0410988,-0.0216083 l -0.0213828,-0.0216082 0.0149666,-0.0146145 0.0149666,-0.0146145 0.0141568,0.0138237 c 0.0103718,0.0101278 0.0173585,0.0138237 0.0261322,0.0138237 h 0.0119754 v -0.0205324 c 0,-0.0112928 9.2372e-4,-0.0205324 0.002053,-0.0205324 0.003428,0 0.0726107,0.0606185 0.0726107,0.0636217 0,0.001539 -0.0167993,0.0173445 -0.0373317,0.035124 l -0.0373317,0.0323263 z M 0.01411143,0.22809662 v -0.022399 h 0.0252378 0.0252378 l 0.06711925,-0.067197 0.0671192,-0.06719704 h 0.019638 0.019638 V 0.0507711 c 0,-0.01129284 9.2372e-4,-0.02053243 0.002053,-0.02053243 0.003428,0 0.0726107,0.06061845 0.0726107,0.06362169 0,0.0015388 -0.0167993,0.01734454 -0.0373317,0.03512398 l -0.0373317,0.0323263 v -0.0226046 -0.0226045 h -0.0121719 c -0.0108035,0 -0.0197167,0.007554 -0.0792909,0.067197 l -0.06711925,0.067197 H 0.04681555 0.01411145 Z M 0.0775753,0.12916762 C 0.06554557,0.11675612 0.06363869,0.11610156 0.03951128,0.11610156 H 0.01411138 V 0.09370254 0.07130353 h 0.032557 0.03255697 L 0.1007792,0.09263247 0.122333,0.1139614 0.1085294,0.1280976 c -0.007592,0.007775 -0.01481304,0.0141362 -0.0160468,0.0141362 -0.0012338,0 -0.0079421,-0.00588 -0.0149073,-0.0130662 z"
       id="path253" /></g></svg>
